<svg width="95" height="99" viewBox="0 0 95 99" fill="none" xmlns="http://www.w3.org/2000/svg">
<mask id="mask0_0_1" style="mask-type:alpha" maskUnits="userSpaceOnUse" x="0" y="0" width="95" height="99">
<ellipse cx="47.88" cy="49.6354" rx="47" ry="49" fill="#F8C9D3"/>
</mask>
<g mask="url(#mask0_0_1)">
<path d="M47.8799 -13L100.76 101.488H-5L47.8799 -13Z" fill="#D1C4E9"/>
<path d="M19.2161 66H15.7005L22.1014 47.8182H26.1674L32.5772 66H29.0616L24.2054 51.5469H24.0634L19.2161 66ZM19.3315 58.8711H28.9196V61.5167H19.3315V58.8711ZM46.0214 60.2649V52.3636H49.2352V66H46.1191V63.5763H45.977C45.6692 64.3398 45.1632 64.9643 44.4589 65.4496C43.7605 65.9349 42.8994 66.1776 41.8754 66.1776C40.9817 66.1776 40.1916 65.9793 39.5051 65.5827C38.8244 65.1803 38.2918 64.5973 37.907 63.8338C37.5223 63.0644 37.33 62.1352 37.33 61.0462V52.3636H40.5438V60.549C40.5438 61.4131 40.7805 62.0997 41.254 62.6087C41.7275 63.1177 42.3489 63.3722 43.1183 63.3722C43.5918 63.3722 44.0505 63.2567 44.4944 63.0259C44.9383 62.7951 45.3023 62.4518 45.5864 61.9961C45.8764 61.5344 46.0214 60.9574 46.0214 60.2649ZM55.04 66V52.3636H58.1561V54.6364H58.2981C58.5467 53.8492 58.9728 53.2425 59.5765 52.8164C60.1861 52.3844 60.8816 52.1683 61.6628 52.1683C61.8404 52.1683 62.0386 52.1772 62.2576 52.195C62.4825 52.2068 62.669 52.2275 62.8169 52.2571V55.2134C62.6808 55.1661 62.4648 55.1246 62.1689 55.0891C61.8788 55.0477 61.5977 55.027 61.3255 55.027C60.7395 55.027 60.2128 55.1542 59.7452 55.4087C59.2836 55.6573 58.9196 56.0036 58.6532 56.4474C58.3869 56.8913 58.2537 57.4033 58.2537 57.9833V66H55.04ZM71.1319 66.2752C70.2678 66.2752 69.4895 66.1213 68.7971 65.8136C68.1105 65.4999 67.566 65.0382 67.1635 64.4286C66.767 63.819 66.5687 63.0674 66.5687 62.1737C66.5687 61.4042 66.7108 60.768 66.9949 60.2649C67.2789 59.7618 67.6666 59.3594 68.1578 59.0575C68.6491 58.7557 69.2025 58.5278 69.818 58.3739C70.4395 58.2141 71.0816 58.0987 71.7445 58.0277C72.5435 57.9448 73.1916 57.8709 73.6887 57.8058C74.1859 57.7347 74.5469 57.6282 74.7718 57.4862C75.0027 57.3382 75.1181 57.1103 75.1181 56.8026V56.7493C75.1181 56.0805 74.9198 55.5626 74.5233 55.1957C74.1267 54.8287 73.5556 54.6452 72.8098 54.6452C72.0227 54.6452 71.3983 54.8169 70.9366 55.1602C70.4809 55.5034 70.1731 55.9089 70.0133 56.3764L67.0126 55.9503C67.2493 55.1217 67.64 54.4292 68.1845 53.8729C68.729 53.3106 69.3948 52.8904 70.182 52.6122C70.9692 52.3281 71.8392 52.1861 72.7921 52.1861C73.449 52.1861 74.103 52.263 74.7541 52.4169C75.4051 52.5708 75.9999 52.8253 76.5385 53.1804C77.0771 53.5296 77.5092 54.006 77.8347 54.6097C78.1661 55.2134 78.3319 55.968 78.3319 56.8736V66H75.2424V64.1268H75.1358C74.9405 64.5056 74.6653 64.8607 74.3102 65.1921C73.961 65.5176 73.5201 65.781 72.9874 65.9822C72.4606 66.1776 71.8422 66.2752 71.1319 66.2752ZM71.9664 63.9137C72.6116 63.9137 73.1709 63.7865 73.6444 63.532C74.1178 63.2715 74.4818 62.9283 74.7363 62.5021C74.9967 62.076 75.127 61.6114 75.127 61.1083V59.5014C75.0263 59.5843 74.8547 59.6612 74.612 59.7322C74.3753 59.8033 74.109 59.8654 73.813 59.9187C73.5171 59.9719 73.2241 60.0193 72.9341 60.0607C72.6441 60.1022 72.3926 60.1377 72.1795 60.1673C71.7001 60.2324 71.271 60.3389 70.8922 60.4869C70.5134 60.6348 70.2145 60.842 69.9956 61.1083C69.7766 61.3687 69.6671 61.7061 69.6671 62.1204C69.6671 62.7122 69.8831 63.1591 70.3152 63.4609C70.7472 63.7628 71.2976 63.9137 71.9664 63.9137Z" fill="#37A4FF"/>
<rect x="24.0022" width="47" height="41" rx="20.5" fill="#6B45BA"/>
<ellipse cx="47.6311" cy="19.4884" rx="15.5" ry="10" fill="#C8E6C9"/>
<path d="M48.1013 23.8266C48.3556 23.9372 48.6444 23.9372 48.8987 23.8266L55.5907 20.9171C56.5854 20.4846 56.2766 19 55.192 19H41.808C40.7234 19 40.4147 20.4846 41.4093 20.9171L48.1013 23.8266Z" fill="#E1CFCF"/>
<path d="M37.1891 15.1236C37.5883 14.5705 38.4117 14.5705 38.8109 15.1236L41.1861 18.4148C41.6634 19.0762 41.1908 20 40.3752 20H35.6248C34.8092 20 34.3366 19.0762 34.8139 18.4148L37.1891 15.1236Z" fill="#A3D5FF"/>
<path d="M42.1891 15.1236C42.5883 14.5705 43.4117 14.5705 43.8109 15.1236L46.1861 18.4148C46.6634 19.0762 46.1908 20 45.3752 20H40.6248C39.8092 20 39.3366 19.0762 39.8139 18.4148L42.1891 15.1236Z" fill="#A3D5FF"/>
<path d="M47.1891 15.1236C47.5883 14.5705 48.4117 14.5705 48.8109 15.1236L51.1861 18.4148C51.6634 19.0762 51.1908 20 50.3752 20H45.6248C44.8092 20 44.3366 19.0762 44.8139 18.4148L47.1891 15.1236Z" fill="#A3D5FF"/>
<path d="M40.058 24.388C40.4571 24.9411 41.2806 24.9411 41.6798 24.388L44.055 21.0968C44.5323 20.4354 44.0597 19.5116 43.2441 19.5116H38.4937C37.6781 19.5116 37.2055 20.4354 37.6828 21.0968L40.058 24.388Z" fill="#A3D5FF"/>
<path d="M55.058 24.388C55.4571 24.9411 56.2806 24.9411 56.6798 24.388L59.055 21.0968C59.5323 20.4354 59.0597 19.5116 58.2441 19.5116H53.4937C52.6781 19.5116 52.2055 20.4354 52.6828 21.0968L55.058 24.388Z" fill="#A3D5FF"/>
<path d="M52.1891 15.1236C52.5883 14.5705 53.4117 14.5705 53.8109 15.1236L56.1861 18.4148C56.6634 19.0762 56.1908 20 55.3752 20H50.6248C49.8092 20 49.3366 19.0762 49.8139 18.4148L52.1891 15.1236Z" fill="#A3D5FF"/>
<path d="M67.6311 50.4884L69.7962 47.4884H65.466L67.6311 50.4884Z" fill="#A3D5FF"/>
<path d="M50.5 45L52.6651 42H48.3349L50.5 45Z" fill="#A3D5FF"/>
<path d="M28.6311 82.0232L30.7962 79.0232H26.466L28.6311 82.0232Z" fill="#A3D5FF"/>
<path d="M65.5 88L67.6651 85H63.3349L65.5 88Z" fill="#A3D5FF"/>
<path d="M31.5 47L33.6651 44H29.3349L31.5 47Z" fill="#A3D5FF"/>
<path d="M55.6311 77.4884L57.7962 74.4884H53.466L55.6311 77.4884Z" fill="#A3D5FF"/>
<path d="M45.5 82L47.6651 79H43.3349L45.5 82Z" fill="#A3D5FF"/>
<path d="M20.5 76L22.6651 73H18.3349L20.5 76Z" fill="#A3D5FF"/>
<path d="M34.6311 72.5116L36.7962 69.5116H32.466L34.6311 72.5116Z" fill="#A3D5FF"/>
<path d="M75.3689 76.5116L77.534 73.5116H73.2038L75.3689 76.5116Z" fill="#A3D5FF"/>
<path d="M57.1891 15.1236C57.5883 14.5705 58.4117 14.5705 58.8109 15.1236L61.1861 18.4148C61.6634 19.0762 61.1908 20 60.3752 20H55.6248C54.8092 20 54.3366 19.0762 54.8139 18.4148L57.1891 15.1236Z" fill="#A3D5FF"/>
</g>
</svg>
