<svg width="95" height="95" viewBox="0 0 95 95" fill="none" xmlns="http://www.w3.org/2000/svg">
<mask id="mask0_0_1" style="mask-type:alpha" maskUnits="userSpaceOnUse" x="0" y="0" width="95" height="95">
<circle cx="47.88" cy="47.631" r="47.0044" fill="#F8C9D3"/>
</mask>
<g mask="url(#mask0_0_1)">
<circle cx="49.1311" cy="43.4884" r="50" fill="#C8E6C9" fill-opacity="0.52"/>
<path d="M47.8799 -17L100.76 97.4884H-5L47.8799 -17Z" fill="#D1C4E9"/>
<path d="M20.3472 81.4884H16.8316L23.2325 63.3066H27.2985L33.7083 81.4884H30.1927L25.3365 67.0353H25.1945L20.3472 81.4884ZM20.4626 74.3595H30.0507V77.0051H20.4626V74.3595ZM47.1525 75.7533V67.852H50.3663V81.4884H47.2502V79.0648H47.1081C46.8003 79.8282 46.2943 80.4527 45.59 80.938C44.8916 81.4233 44.0305 81.666 43.0065 81.666C42.1128 81.666 41.3227 81.4677 40.6362 81.0711C39.9555 80.6687 39.4229 80.0857 39.0382 79.3222C38.6534 78.5528 38.4611 77.6236 38.4611 76.5346V67.852H41.6749V76.0374C41.6749 76.9015 41.9116 77.5881 42.3851 78.0971C42.8586 78.6061 43.48 78.8606 44.2494 78.8606C44.7229 78.8606 45.1816 78.7452 45.6255 78.5143C46.0694 78.2835 46.4334 77.9402 46.7175 77.4845C47.0075 77.0228 47.1525 76.4458 47.1525 75.7533ZM56.1711 81.4884V67.852H59.2872V70.1248H59.4292C59.6778 69.3376 60.1039 68.7309 60.7076 68.3048C61.3172 67.8728 62.0127 67.6567 62.7939 67.6567C62.9715 67.6567 63.1698 67.6656 63.3887 67.6834C63.6136 67.6952 63.8001 67.7159 63.948 67.7455V70.7018C63.8119 70.6545 63.5959 70.613 63.3 70.5775C63.01 70.5361 62.7288 70.5154 62.4566 70.5154C61.8706 70.5154 61.3439 70.6426 60.8763 70.8971C60.4147 71.1457 60.0507 71.492 59.7843 71.9358C59.518 72.3797 59.3848 72.8917 59.3848 73.4717V81.4884H56.1711ZM72.263 81.7636C71.3989 81.7636 70.6206 81.6097 69.9282 81.302C69.2416 80.9883 68.6971 80.5266 68.2946 79.917C67.8981 79.3074 67.6998 78.5558 67.6998 77.6621C67.6998 76.8926 67.8419 76.2564 68.126 75.7533C68.41 75.2502 68.7977 74.8478 69.289 74.5459C69.7802 74.2441 70.3336 74.0162 70.9491 73.8623C71.5706 73.7025 72.2127 73.5871 72.8756 73.5161C73.6746 73.4332 74.3227 73.3593 74.8198 73.2942C75.317 73.2231 75.678 73.1166 75.9029 72.9746C76.1338 72.8266 76.2492 72.5987 76.2492 72.291V72.2377C76.2492 71.5689 76.0509 71.051 75.6544 70.6841C75.2578 70.3171 74.6867 70.1336 73.9409 70.1336C73.1538 70.1336 72.5294 70.3053 72.0677 70.6486C71.612 70.9918 71.3042 71.3973 71.1444 71.8648L68.1437 71.4387C68.3805 70.6101 68.7711 69.9176 69.3156 69.3613C69.8601 68.799 70.5259 68.3788 71.3131 68.1006C72.1003 67.8165 72.9703 67.6745 73.9232 67.6745C74.5801 67.6745 75.2341 67.7514 75.8852 67.9053C76.5362 68.0592 77.131 68.3137 77.6696 68.6688C78.2082 69.018 78.6403 69.4944 78.9658 70.0981C79.2972 70.7018 79.463 71.4564 79.463 72.362V81.4884H76.3735V79.6152H76.2669C76.0716 79.994 75.7964 80.3491 75.4413 80.6805C75.0921 81.006 74.6512 81.2694 74.1185 81.4706C73.5917 81.666 72.9733 81.7636 72.263 81.7636ZM73.0975 79.4021C73.7427 79.4021 74.302 79.2749 74.7755 79.0204C75.2489 78.7599 75.6129 78.4167 75.8674 77.9905C76.1278 77.5644 76.2581 77.0998 76.2581 76.5967V74.9898C76.1574 75.0727 75.9858 75.1496 75.7431 75.2206C75.5064 75.2917 75.2401 75.3538 74.9441 75.4071C74.6482 75.4603 74.3552 75.5077 74.0652 75.5491C73.7752 75.5906 73.5237 75.6261 73.3106 75.6557C72.8312 75.7208 72.4021 75.8273 72.0233 75.9753C71.6445 76.1232 71.3457 76.3304 71.1267 76.5967C70.9077 76.8571 70.7982 77.1945 70.7982 77.6088C70.7982 78.2006 71.0142 78.6475 71.4463 78.9493C71.8783 79.2512 72.4287 79.4021 73.0975 79.4021Z" fill="#37A4FF"/>
<rect x="24.3777" y="-11.1244" width="47.0044" height="41.1288" fill="#6B45BA"/>
<ellipse cx="47.6311" cy="15.4884" rx="15.5" ry="10" fill="#F8C9D3"/>
<path d="M37.1311 11.4884L41.4612 17.4884H32.801L37.1311 11.4884Z" fill="#A3D5FF" fill-opacity="0.5"/>
<path d="M42.1311 11.4884L46.4612 17.4884H37.801L42.1311 11.4884Z" fill="#A3D5FF" fill-opacity="0.5"/>
<path d="M47.1311 11.4884L51.4612 17.4884H42.801L47.1311 11.4884Z" fill="#A3D5FF" fill-opacity="0.5"/>
<path d="M52.1311 11.4884L56.4612 17.4884H47.801L52.1311 11.4884Z" fill="#A3D5FF" fill-opacity="0.5"/>
<path d="M57.1311 11.4884L61.4612 17.4884H52.801L57.1311 11.4884Z" fill="#A3D5FF" fill-opacity="0.5"/>
<path d="M37.1311 10.4884L41.4612 16.4884H32.801L37.1311 10.4884Z" fill="#A3D5FF"/>
<path d="M42.1311 10.4884L46.4612 16.4884H37.801L42.1311 10.4884Z" fill="#A3D5FF"/>
<path d="M47.1311 10.4884L51.4612 16.4884H42.801L47.1311 10.4884Z" fill="#A3D5FF"/>
<path d="M52.1311 10.4884L56.4612 16.4884H47.801L52.1311 10.4884Z" fill="#A3D5FF"/>
<path d="M31.6311 37.4884L33.7962 34.4884H29.466L31.6311 37.4884Z" fill="#A3D5FF"/>
<path d="M39.6311 44.4884L41.7962 41.4884H37.466L39.6311 44.4884Z" fill="#A3D5FF"/>
<path d="M58.6311 37.4884L60.7962 34.4884H56.466L58.6311 37.4884Z" fill="#A3D5FF"/>
<path d="M67.6311 46.4884L69.7962 43.4884H65.466L67.6311 46.4884Z" fill="#A3D5FF"/>
<path d="M50.6311 44.4884L52.7962 41.4884H48.466L50.6311 44.4884Z" fill="#A3D5FF"/>
<path d="M28.6311 49.4884L30.7962 46.4884H26.466L28.6311 49.4884Z" fill="#A3D5FF"/>
<path d="M64.6311 54.4884L66.7962 51.4884H62.466L64.6311 54.4884Z" fill="#A3D5FF"/>
<path d="M38.6311 53.4884L40.7962 50.4884H36.466L38.6311 53.4884Z" fill="#A3D5FF"/>
<path d="M55.6311 59.4884L57.7962 56.4884H53.466L55.6311 59.4884Z" fill="#A3D5FF"/>
<path d="M20.6311 57.4884L22.7962 54.4884H18.466L20.6311 57.4884Z" fill="#A3D5FF"/>
<path d="M34.6311 61.4884L36.7962 58.4884H32.466L34.6311 61.4884Z" fill="#A3D5FF"/>
<path d="M75.6311 63.4884L77.7962 60.4884H73.466L75.6311 63.4884Z" fill="#A3D5FF"/>
<path d="M31.6311 37.4884L33.7962 34.4884H29.466L31.6311 37.4884Z" fill="#A3D5FF"/>
<path d="M46.9661 35.9884L49.1312 32.9884H44.801L46.9661 35.9884Z" fill="#A3D5FF"/>
<path d="M57.1311 10.4884L61.4612 16.4884H52.801L57.1311 10.4884Z" fill="#A3D5FF"/>
</g>
</svg>
